<svg xmlns="http://www.w3.org/2000/svg" viewBox="0 0 64 64" fill="none">
  <circle cx="32" cy="32" r="32" fill="#000000"/>
  <path d="M14 32 A18 18 0 1 1 32 50" stroke="#A6A7A2" stroke-width="3" stroke-linecap="round" fill="none"/>
  <polygon points="32,46 37,53 27,53" fill="#A6A7A2"/>
  <path d="M27 46 C27 50 37 50 37 46 L37 32 C37 28 34 26 34 22 L34 17 L30 17 L30 22 C30 26 27 28 27 32 Z" fill="#00ACAC"/>
  <rect x="30" y="13" width="4" height="5" rx="1" fill="#00ACAC"/>
  <rect x="29" y="11" width="6" height="3" rx="1" fill="#DFDEDC"/>
  <ellipse cx="32" cy="32" rx="4" ry="1.5" fill="#33c4c4" opacity="0.6"/>
</svg>
